<svg xmlns="http://www.w3.org/2000/svg" width="895" height="365" viewBox="0 0 895 365" fill="none"> <path fill-rule="evenodd" clip-rule="evenodd" d="M895 0H0V277H895V0ZM66 220.051H107.617V58.716H66V220.051ZM378.296 220.051H419.913V58.716H362.629L317.83 160.481H313.668L269.114 58.716H211.096V220.051H252.712V122.754H256.14L298.98 220.051H332.763L374.869 122.754H378.296V220.051ZM539.728 223.03C590.158 223.03 627.613 190.018 627.613 138.391C627.613 86.7634 590.158 54 539.728 54C489.054 54 451.844 86.7634 451.844 138.391C451.844 190.018 489.054 223.03 539.728 223.03ZM585.262 138.391C585.262 166.935 567.146 183.813 539.728 183.813C512.31 183.813 494.195 166.935 494.195 138.391C494.195 110.095 512.31 93.2168 539.728 93.2168C567.146 93.2168 585.262 110.095 585.262 138.391ZM770.239 220.051H828.992V58.716H787.375V167.679H784.682L718.341 58.716H659.343V220.051H700.959V111.088H703.652L770.239 220.051ZM177.63 83.0402C177.63 93.4584 169.301 101.904 159.025 101.904C148.75 101.904 140.42 93.4584 140.42 83.0402C140.42 72.622 148.75 64.1764 159.025 64.1764C169.301 64.1764 177.63 72.622 177.63 83.0402Z" fill="white"/> <path d="M41.5781 306.922L54.293 340.707L66.9775 306.922H76.877V351H69.248V336.469L70.0049 317.033L56.9873 351H51.5078L38.5205 317.063L39.2773 336.469V351H31.6484V306.922H41.5781Z" fill="white"/> <path d="M104.819 351C104.496 350.374 104.214 349.355 103.972 347.942C101.631 350.384 98.7646 351.605 95.374 351.605C92.0843 351.605 89.4001 350.667 87.3213 348.79C85.2425 346.913 84.2031 344.592 84.2031 341.827C84.2031 338.336 85.4948 335.661 88.0781 333.805C90.6816 331.928 94.3952 330.989 99.2188 330.989H103.729V328.84C103.729 327.145 103.255 325.792 102.307 324.783C101.358 323.754 99.915 323.239 97.9775 323.239C96.3024 323.239 94.93 323.663 93.8604 324.511C92.7907 325.338 92.2559 326.398 92.2559 327.689H84.8994C84.8994 325.893 85.4948 324.218 86.6855 322.664C87.8763 321.09 89.4909 319.859 91.5293 318.971C93.5879 318.083 95.8786 317.639 98.4014 317.639C102.236 317.639 105.294 318.607 107.574 320.545C109.855 322.462 111.025 325.167 111.086 328.658V343.432C111.086 346.378 111.5 348.729 112.327 350.485V351H104.819ZM96.7363 345.702C98.1895 345.702 99.5518 345.349 100.823 344.643C102.115 343.936 103.084 342.988 103.729 341.797V335.621H99.7637C97.0391 335.621 94.9906 336.095 93.6182 337.044C92.2458 337.993 91.5596 339.335 91.5596 341.07C91.5596 342.483 92.0238 343.613 92.9521 344.461C93.9007 345.288 95.1621 345.702 96.7363 345.702Z" fill="white"/> <path d="M117.413 334.38C117.413 329.334 118.584 325.288 120.925 322.24C123.266 319.173 126.404 317.639 130.34 317.639C133.811 317.639 136.617 318.85 138.756 321.271V304.5H146.112V351H139.452L139.089 347.609C136.889 350.273 133.952 351.605 130.279 351.605C126.445 351.605 123.337 350.062 120.955 346.974C118.594 343.886 117.413 339.688 117.413 334.38ZM124.77 335.016C124.77 338.346 125.405 340.949 126.677 342.826C127.968 344.683 129.795 345.611 132.156 345.611C135.163 345.611 137.363 344.269 138.756 341.585V327.599C137.404 324.975 135.224 323.663 132.217 323.663C129.835 323.663 127.999 324.612 126.707 326.509C125.415 328.386 124.77 331.221 124.77 335.016Z" fill="white"/> <path d="M168.212 351.605C163.55 351.605 159.766 350.142 156.859 347.216C153.973 344.269 152.53 340.354 152.53 335.47V334.562C152.53 331.292 153.156 328.376 154.407 325.812C155.679 323.229 157.455 321.221 159.735 319.788C162.016 318.355 164.559 317.639 167.364 317.639C171.825 317.639 175.266 319.062 177.688 321.907C180.13 324.753 181.351 328.779 181.351 333.986V336.953H159.947C160.169 339.658 161.067 341.797 162.642 343.371C164.236 344.945 166.234 345.732 168.636 345.732C172.006 345.732 174.751 344.37 176.87 341.646L180.836 345.43C179.524 347.387 177.768 348.911 175.568 350.001C173.389 351.071 170.937 351.605 168.212 351.605ZM167.334 323.542C165.316 323.542 163.681 324.248 162.43 325.661C161.199 327.074 160.411 329.042 160.068 331.564H174.085V331.02C173.924 328.557 173.268 326.701 172.117 325.449C170.967 324.178 169.372 323.542 167.334 323.542Z" fill="white"/> <path d="M231.271 334.955C231.271 340.041 230.131 344.088 227.851 347.095C225.59 350.102 222.472 351.605 218.496 351.605C214.661 351.605 211.674 350.223 209.535 347.458L209.172 351H202.512V304.5H209.868V321.393C211.987 318.89 214.843 317.639 218.436 317.639C222.432 317.639 225.57 319.122 227.851 322.089C230.131 325.056 231.271 329.203 231.271 334.531V334.955ZM223.915 334.319C223.915 330.767 223.289 328.103 222.038 326.327C220.787 324.551 218.97 323.663 216.589 323.663C213.4 323.663 211.16 325.056 209.868 327.841V341.343C211.18 344.188 213.44 345.611 216.649 345.611C218.95 345.611 220.726 344.754 221.978 343.038C223.229 341.323 223.875 338.729 223.915 335.258V334.319Z" fill="white"/> <path d="M248.558 340.465L255.218 318.244H263.059L250.041 355.965C248.043 361.475 244.652 364.229 239.869 364.229C238.799 364.229 237.619 364.048 236.327 363.685V357.993L237.72 358.084C239.576 358.084 240.969 357.741 241.897 357.055C242.846 356.389 243.593 355.258 244.138 353.664L245.197 350.849L233.693 318.244H241.625L248.558 340.465Z" fill="white"/> <path d="M291.546 351H283.917V306.922H291.546V351Z" fill="white"/> <path d="M310.891 306.922L323.605 340.707L336.29 306.922H346.189V351H338.561V336.469L339.317 317.033L326.3 351H320.82L307.833 317.063L308.59 336.469V351H300.961V306.922H310.891Z" fill="white"/> <path d="M390.449 330.111C390.449 334.43 389.702 338.225 388.209 341.494C386.715 344.743 384.576 347.246 381.791 349.002C379.026 350.738 375.837 351.605 372.225 351.605C368.652 351.605 365.464 350.738 362.658 349.002C359.873 347.246 357.714 344.754 356.18 341.524C354.666 338.295 353.899 334.572 353.879 330.354V327.871C353.879 323.572 354.636 319.778 356.149 316.488C357.683 313.199 359.833 310.686 362.598 308.95C365.383 307.194 368.572 306.316 372.164 306.316C375.757 306.316 378.935 307.184 381.7 308.92C384.485 310.635 386.635 313.118 388.148 316.367C389.662 319.596 390.429 323.36 390.449 327.659V330.111ZM382.79 327.811C382.79 322.926 381.862 319.183 380.005 316.579C378.168 313.976 375.555 312.674 372.164 312.674C368.854 312.674 366.261 313.976 364.384 316.579C362.527 319.162 361.578 322.826 361.538 327.568V330.111C361.538 334.955 362.477 338.699 364.354 341.343C366.251 343.987 368.874 345.309 372.225 345.309C375.615 345.309 378.219 344.017 380.035 341.434C381.872 338.85 382.79 335.076 382.79 330.111V327.811Z" fill="white"/> <path d="M433.044 351H425.385L405.737 319.728V351H398.078V306.922H405.737L425.445 338.315V306.922H433.044V351Z" fill="white"/> <path d="M457.535 351V306.922H470.553C474.448 306.922 477.899 307.79 480.906 309.525C483.934 311.261 486.275 313.723 487.93 316.912C489.585 320.101 490.412 323.754 490.412 327.871V330.081C490.412 334.259 489.575 337.932 487.899 341.101C486.244 344.269 483.873 346.711 480.785 348.427C477.717 350.142 474.196 351 470.22 351H457.535ZM465.194 313.098V344.885H470.189C474.206 344.885 477.284 343.633 479.423 341.131C481.582 338.608 482.682 334.995 482.723 330.293V327.841C482.723 323.058 481.683 319.405 479.604 316.882C477.526 314.359 474.508 313.098 470.553 313.098H465.194Z" fill="white"/> <path d="M511.755 351.605C507.093 351.605 503.309 350.142 500.402 347.216C497.516 344.269 496.073 340.354 496.073 335.47V334.562C496.073 331.292 496.699 328.376 497.95 325.812C499.222 323.229 500.998 321.221 503.278 319.788C505.559 318.355 508.102 317.639 510.907 317.639C515.368 317.639 518.809 319.062 521.23 321.907C523.673 324.753 524.894 328.779 524.894 333.986V336.953H503.49C503.712 339.658 504.61 341.797 506.185 343.371C507.779 344.945 509.777 345.732 512.179 345.732C515.549 345.732 518.294 344.37 520.413 341.646L524.379 345.43C523.067 347.387 521.311 348.911 519.111 350.001C516.932 351.071 514.479 351.605 511.755 351.605ZM510.877 323.542C508.859 323.542 507.224 324.248 505.973 325.661C504.742 327.074 503.954 329.042 503.611 331.564H517.628V331.02C517.466 328.557 516.811 326.701 515.66 325.449C514.51 324.178 512.915 323.542 510.877 323.542Z" fill="white"/> <path d="M548.991 342.1C548.991 340.788 548.446 339.789 547.356 339.103C546.287 338.416 544.501 337.811 541.998 337.286C539.495 336.761 537.407 336.095 535.731 335.288C532.058 333.512 530.222 330.939 530.222 327.568C530.222 324.743 531.412 322.382 533.794 320.484C536.175 318.587 539.203 317.639 542.876 317.639C546.791 317.639 549.95 318.607 552.352 320.545C554.773 322.482 555.984 324.995 555.984 328.083H548.628C548.628 326.67 548.103 325.5 547.054 324.571C546.004 323.623 544.612 323.148 542.876 323.148C541.261 323.148 539.939 323.522 538.91 324.269C537.901 325.015 537.396 326.014 537.396 327.266C537.396 328.396 537.871 329.274 538.819 329.899C539.768 330.525 541.685 331.161 544.571 331.807C547.457 332.432 549.718 333.189 551.353 334.077C553.008 334.945 554.229 335.994 555.016 337.226C555.823 338.457 556.227 339.95 556.227 341.706C556.227 344.653 555.006 347.044 552.563 348.881C550.121 350.697 546.923 351.605 542.967 351.605C540.283 351.605 537.891 351.121 535.792 350.152C533.693 349.184 532.058 347.852 530.888 346.156C529.717 344.461 529.132 342.634 529.132 340.677H536.276C536.377 342.412 537.033 343.755 538.244 344.703C539.455 345.632 541.06 346.096 543.058 346.096C544.995 346.096 546.468 345.732 547.478 345.006C548.487 344.259 548.991 343.29 548.991 342.1Z" fill="white"/> <path d="M570.485 351H563.129V318.244H570.485V351ZM562.675 309.737C562.675 308.607 563.028 307.669 563.734 306.922C564.461 306.175 565.49 305.802 566.822 305.802C568.154 305.802 569.184 306.175 569.91 306.922C570.637 307.669 571 308.607 571 309.737C571 310.847 570.637 311.776 569.91 312.522C569.184 313.249 568.154 313.612 566.822 313.612C565.49 313.612 564.461 313.249 563.734 312.522C563.028 311.776 562.675 310.847 562.675 309.737Z" fill="white"/> <path d="M577.236 334.38C577.236 329.294 578.427 325.237 580.809 322.21C583.21 319.162 586.389 317.639 590.345 317.639C594.078 317.639 597.015 318.94 599.154 321.544L599.487 318.244H606.117V350.001C606.117 354.3 604.775 357.69 602.091 360.173C599.427 362.655 595.824 363.896 591.283 363.896C588.882 363.896 586.53 363.392 584.229 362.383C581.949 361.394 580.213 360.092 579.022 358.478L582.504 354.058C584.764 356.742 587.549 358.084 590.859 358.084C593.301 358.084 595.229 357.418 596.642 356.086C598.054 354.774 598.761 352.837 598.761 350.273V348.063C596.642 350.425 593.816 351.605 590.284 351.605C586.45 351.605 583.311 350.082 580.869 347.034C578.447 343.987 577.236 339.769 577.236 334.38ZM584.562 335.016C584.562 338.305 585.229 340.899 586.561 342.796C587.913 344.673 589.78 345.611 592.161 345.611C595.128 345.611 597.328 344.34 598.761 341.797V327.387C597.368 324.904 595.188 323.663 592.222 323.663C589.8 323.663 587.913 324.622 586.561 326.539C585.229 328.456 584.562 331.282 584.562 335.016Z" fill="white"/> <path d="M620.527 318.244L620.739 322.028C623.161 319.102 626.34 317.639 630.275 317.639C637.097 317.639 640.568 321.544 640.689 329.354V351H633.333V329.778C633.333 327.7 632.879 326.166 631.971 325.177C631.083 324.168 629.619 323.663 627.581 323.663C624.614 323.663 622.404 325.005 620.951 327.689V351H613.595V318.244H620.527Z" fill="white"/> <path d="M689.036 340.737H671.962L668.39 351H660.428L677.078 306.922H683.95L700.631 351H692.639L689.036 340.737ZM674.111 334.562H686.887L680.499 316.276L674.111 334.562Z" fill="white"/> <path d="M703.658 334.38C703.658 329.294 704.849 325.237 707.23 322.21C709.632 319.162 712.811 317.639 716.767 317.639C720.5 317.639 723.437 318.94 725.576 321.544L725.909 318.244H732.539V350.001C732.539 354.3 731.197 357.69 728.513 360.173C725.849 362.655 722.246 363.896 717.705 363.896C715.303 363.896 712.952 363.392 710.651 362.383C708.371 361.394 706.635 360.092 705.444 358.478L708.926 354.058C711.186 356.742 713.971 358.084 717.281 358.084C719.723 358.084 721.651 357.418 723.063 356.086C724.476 354.774 725.183 352.837 725.183 350.273V348.063C723.063 350.425 720.238 351.605 716.706 351.605C712.871 351.605 709.733 350.082 707.291 347.034C704.869 343.987 703.658 339.769 703.658 334.38ZM710.984 335.016C710.984 338.305 711.65 340.899 712.982 342.796C714.335 344.673 716.201 345.611 718.583 345.611C721.55 345.611 723.75 344.34 725.183 341.797V327.387C723.79 324.904 721.61 323.663 718.644 323.663C716.222 323.663 714.335 324.622 712.982 326.539C711.65 328.456 710.984 331.282 710.984 335.016Z" fill="white"/> <path d="M754.548 351.605C749.886 351.605 746.102 350.142 743.195 347.216C740.309 344.269 738.866 340.354 738.866 335.47V334.562C738.866 331.292 739.492 328.376 740.743 325.812C742.015 323.229 743.791 321.221 746.071 319.788C748.352 318.355 750.895 317.639 753.7 317.639C758.16 317.639 761.602 319.062 764.023 321.907C766.466 324.753 767.687 328.779 767.687 333.986V336.953H746.283C746.505 339.658 747.403 341.797 748.978 343.371C750.572 344.945 752.57 345.732 754.972 345.732C758.342 345.732 761.087 344.37 763.206 341.646L767.172 345.43C765.86 347.387 764.104 348.911 761.904 350.001C759.725 351.071 757.272 351.605 754.548 351.605ZM753.67 323.542C751.652 323.542 750.017 324.248 748.766 325.661C747.534 327.074 746.747 329.042 746.404 331.564H760.421V331.02C760.259 328.557 759.604 326.701 758.453 325.449C757.303 324.178 755.708 323.542 753.67 323.542Z" fill="white"/> <path d="M780.25 318.244L780.462 322.028C782.884 319.102 786.062 317.639 789.998 317.639C796.82 317.639 800.291 321.544 800.412 329.354V351H793.056V329.778C793.056 327.7 792.602 326.166 791.693 325.177C790.805 324.168 789.342 323.663 787.304 323.663C784.337 323.663 782.127 325.005 780.674 327.689V351H773.317V318.244H780.25Z" fill="white"/> <path d="M821.392 345.732C823.228 345.732 824.752 345.198 825.963 344.128C827.174 343.058 827.82 341.736 827.9 340.162H834.833C834.752 342.201 834.117 344.108 832.926 345.884C831.735 347.64 830.12 349.032 828.082 350.062C826.044 351.091 823.844 351.605 821.482 351.605C816.901 351.605 813.268 350.122 810.584 347.155C807.9 344.188 806.558 340.091 806.558 334.864V334.107C806.558 329.122 807.89 325.136 810.554 322.149C813.218 319.142 816.851 317.639 821.452 317.639C825.347 317.639 828.516 318.779 830.958 321.06C833.42 323.32 834.712 326.297 834.833 329.99H827.9C827.82 328.113 827.174 326.569 825.963 325.358C824.772 324.147 823.248 323.542 821.392 323.542C819.01 323.542 817.174 324.41 815.882 326.146C814.59 327.861 813.934 330.475 813.914 333.986V335.167C813.914 338.719 814.55 341.373 815.821 343.129C817.113 344.865 818.97 345.732 821.392 345.732Z" fill="white"/> <path d="M851.847 340.465L858.507 318.244H866.348L853.33 355.965C851.332 361.475 847.941 364.229 843.158 364.229C842.089 364.229 840.908 364.048 839.616 363.685V357.993L841.009 358.084C842.866 358.084 844.258 357.741 845.187 357.055C846.135 356.389 846.882 355.258 847.427 353.664L848.486 350.849L836.982 318.244H844.914L851.847 340.465Z" fill="white"/> </svg>